<?xml version="1.0" standalone="no"?><!DOCTYPE svg PUBLIC "-//W3C//DTD SVG 1.1//EN" "http://www.w3.org/Graphics/SVG/1.1/DTD/svg11.dtd"><svg t="1605087530862" class="icon" viewBox="0 0 1024 1024" version="1.1" xmlns="http://www.w3.org/2000/svg" p-id="6247" xmlns:xlink="http://www.w3.org/1999/xlink" width="32" height="32"><defs><style type="text/css"></style></defs><path d="M884.363636 0H139.636364a95.418182 95.418182 0 0 0-93.090909 97.28v829.44A93.090909 93.090909 0 0 0 139.636364 1024a93.090909 93.090909 0 0 0 34.443636-6.981818l303.476364-127.069091a93.090909 93.090909 0 0 1 68.887272 0l303.476364 127.069091A93.090909 93.090909 0 0 0 884.363636 1024a93.090909 93.090909 0 0 0 93.090909-97.28V97.28A95.418182 95.418182 0 0 0 884.363636 0zM139.636364 930.909091a4.654545 4.654545 0 0 1 0-3.258182V97.28 93.090909h744.727272a6.050909 6.050909 0 0 1 0 4.189091v829.44a4.654545 4.654545 0 0 1 0 4.189091l-301.149091-125.672727a186.181818 186.181818 0 0 0-139.636363 0L139.636364 930.909091z" fill="#A8A8AB" p-id="6248"></path><path d="M698.181818 279.272727H325.818182a46.545455 46.545455 0 0 0 0 93.090909h372.363636a46.545455 46.545455 0 0 0 0-93.090909z" fill="#A8A8AB" p-id="6249"></path></svg>