<?xml version="1.0" standalone="no"?><!DOCTYPE svg PUBLIC "-//W3C//DTD SVG 1.1//EN" "http://www.w3.org/Graphics/SVG/1.1/DTD/svg11.dtd"><svg t="1605088449980" class="icon" viewBox="0 0 1024 1024" version="1.1" xmlns="http://www.w3.org/2000/svg" p-id="12449" xmlns:xlink="http://www.w3.org/1999/xlink" width="32" height="32"><defs><style type="text/css"></style></defs><path d="M930.496 470.4l-463.68 462.976H466.56L88.96 556.48l463.744-462.976c11.328-1.152 39.296-3.072 105.6-3.072 114.432 0 266.624 5.504 269.632 7.04 5.76 154.56 8.064 328.96 2.624 372.928m86.4-374.528c0-48.896-39.872-88.64-87.168-88.64h-0.064c-1.536 0-155.328-5.696-271.36-5.696-133.76 0-145.792 6.4-160.256 20.864L25.984 493.696a88.96 88.96 0 0 0 0.192 125.888l377.28 376.576c16.896 16.896 39.296 26.112 63.168 26.112s46.144-9.216 62.848-25.856l472.064-471.296c15.616-15.552 30.272-30.208 15.296-429.248" fill="#8a8a8a" p-id="12450"></path><path d="M669.568 390.72a66.752 66.752 0 0 1-66.752-66.624 66.752 66.752 0 0 1 133.504 0c0 36.736-29.952 66.624-66.752 66.624m0-222.144a155.84 155.84 0 0 0-155.776 155.52 155.84 155.84 0 0 0 311.552 0c0-85.76-69.888-155.52-155.776-155.52" fill="#8a8a8a" p-id="12451"></path></svg>