<?xml version="1.0" standalone="no"?><!DOCTYPE svg PUBLIC "-//W3C//DTD SVG 1.1//EN" "http://www.w3.org/Graphics/SVG/1.1/DTD/svg11.dtd"><svg t="1605088325323" class="icon" viewBox="0 0 1024 1024" version="1.1" xmlns="http://www.w3.org/2000/svg" p-id="11589" xmlns:xlink="http://www.w3.org/1999/xlink" width="32" height="32"><defs><style type="text/css"></style></defs><path d="M555.914906 25.281022l371.036862 206.473644a84.694162 84.694162 0 0 1 44.215335 73.823992v412.980128a84.697811 84.697811 0 0 1-44.215335 73.825207L555.914906 998.857637a91.303595 91.303595 0 0 1-88.430669 0l-371.035646-206.473644a84.697811 84.697811 0 0 1-44.215335-73.825207V305.578658a84.694162 84.694162 0 0 1 44.215335-73.823992l371.035646-206.473644a91.296298 91.296298 0 0 1 88.430669 0z m0 0" fill="#636363" p-id="11590"></path><path d="M522.722997 78.993313a22.696362 22.696362 0 0 0-22.011579 0L129.674556 285.466956a23.039361 23.039361 0 0 0-11.769024 20.083726v412.975263c0 8.438765 4.575762 16.096659 11.769024 20.084942l371.036862 206.473644a22.670819 22.670819 0 0 0 22.011579 0l371.036862-206.473644a23.040578 23.040578 0 0 0 11.769025-20.084942V305.550682a22.94084 22.94084 0 0 0-11.769025-20.083726L522.722997 78.993313z m33.191909-53.712291l371.036862 206.473644a84.694162 84.694162 0 0 1 44.215335 73.823992v412.980128a84.697811 84.697811 0 0 1-44.215335 73.825207L555.914906 998.857637a91.303595 91.303595 0 0 1-88.430669 0l-371.035646-206.473644a84.697811 84.697811 0 0 1-44.215335-73.825207V305.578658a84.694162 84.694162 0 0 1 44.215335-73.823992l371.035646-206.473644a91.296298 91.296298 0 0 1 88.430669 0z m0 0" fill="#B8B8B8" p-id="11591"></path><path d="M702.542403 751.189975l-190.81364-95.465812-190.808776 95.465812 36.432161-202.239666L202.971885 405.719968l213.323907-29.51865 95.404996-183.992569 73.297328 141.396145C391.946463 476.746444 321.233795 732.537847 321.233795 750.910223c0-18.931879 105.771614-279.584877 324.697849-369.321863l174.498046 24.131608-174.498046 143.230341 56.577919 202.239666h0.03284z m0 0" fill="#FFFFFF" p-id="11592"></path></svg>