<?xml version="1.0" standalone="no"?><!DOCTYPE svg PUBLIC "-//W3C//DTD SVG 1.1//EN" "http://www.w3.org/Graphics/SVG/1.1/DTD/svg11.dtd"><svg t="1605087624932" class="icon" viewBox="0 0 1024 1024" version="1.1" xmlns="http://www.w3.org/2000/svg" p-id="7918" xmlns:xlink="http://www.w3.org/1999/xlink" width="32" height="32"><defs><style type="text/css"></style></defs><path d="M511.974241 1023.99936H109.754478l39.038036-151.992353A511.974241 511.974241 0 1 1 511.974241 1023.99936z m-278.385993-95.99517H511.974241a415.979071 415.979071 0 1 0-277.426042-106.874623l21.438922 19.519018z" fill="#8C8C8C" p-id="7919"></path><path d="M276.46609 512.025119m-63.99678 0a63.99678 63.99678 0 1 0 127.99356 0 63.99678 63.99678 0 1 0-127.99356 0Z" fill="#8C8C8C" p-id="7920"></path><path d="M511.974241 512.025119m-63.99678 0a63.99678 63.99678 0 1 0 127.99356 0 63.99678 63.99678 0 1 0-127.99356 0Z" fill="#8C8C8C" p-id="7921"></path><path d="M747.482392 512.025119m-63.99678 0a63.99678 63.99678 0 1 0 127.99356 0 63.99678 63.99678 0 1 0-127.99356 0Z" fill="#8C8C8C" p-id="7922"></path></svg>